<?xml version="1.0" encoding="utf-8"?>
<!-- Generator: Adobe Illustrator 25.4.1, SVG Export Plug-In . SVG Version: 6.00 Build 0)  -->
<svg version="1.1" id="Layer_1" xmlns="http://www.w3.org/2000/svg" xmlns:xlink="http://www.w3.org/1999/xlink" x="0px" y="0px"
	 viewBox="0 0 512 512" style="enable-background:new 0 0 512 512;" xml:space="preserve">
<style type="text/css">
	.st0{fill:#0052FE;}
	.st1{fill:#FFFFFF;}
</style>
<path class="st0" d="M462,512H50c-27.61,0-50-22.39-50-50V50C0,22.39,22.39,0,50,0h412c27.61,0,50,22.39,50,50v412
	C512,489.61,489.61,512,462,512z"/>
<g>
	<path class="st1" d="M401.27,249.71h-71.34c-7.16,0-12.97,5.81-12.97,12.97v44.07c0,7.16,5.81,12.97,12.97,12.97h71.34
		c7.16,0,12.97-5.81,12.97-12.97v-44.07C414.25,255.52,408.44,249.71,401.27,249.71z M354.79,303.47
		c-10.13,0-18.34-8.21-18.34-18.34c0-10.13,8.21-18.34,18.34-18.34c10.13,0,18.34,8.21,18.34,18.34
		C373.12,295.26,364.91,303.47,354.79,303.47z"/>
	<path class="st1" d="M205.06,147.18l106.19-34.87c13.84-4.55,28.73,3.14,33.03,17.06l5.5,17.81H205.06z"/>
</g>
<g>
	<path class="st1" d="M322.9,235.54h80.23v-45.7c0-11.36-9.21-20.57-20.57-20.57H178.33c0.61,1.13,1.24,2.26,1.9,3.4
		c18.23,31.3,39.09,40.11,62.59,26.43c9.86-5.74,20.36-15.16,31.51-28.25l14.54,24.97c-8.73,11.51-20.2,21.41-34.41,29.68
		c-20.42,11.89-39.65,14.8-57.68,8.71s-33.8-20.72-47.29-43.89c-4.12-7.08-7.36-14.09-9.74-21.05h-21.43
		c-11.36,0-20.57,9.21-20.57,20.57v190.59c0,11.36,9.21,20.57,20.57,20.57h264.24c11.36,0,20.57-9.21,20.57-20.57v-44.86H322.9
		c-12.08,0-21.88-9.8-21.88-21.88v-56.27C301.02,245.34,310.82,235.54,322.9,235.54z"/>
	<path class="st1" d="M168.96,132.11c1.24-12,7.47-21.26,18.67-27.78c5.12-2.98,10.88-5.09,17.27-6.33
		c6.39-1.24,12.94-2.14,19.65-2.7l-4.49-29.79c-17.6,1.42-33.22,6.1-46.86,14.05c-13.38,7.79-23.34,17.52-29.88,29.17
		c-6.54,11.65-9.27,24.52-8.19,38.59c0.56,7.25,2.11,14.57,4.63,21.95h38.58C170.94,155.58,167.81,143.2,168.96,132.11z"/>
</g>
</svg>
